<?xml version="1.0" encoding="utf-8"?>
<svg xmlns="http://www.w3.org/2000/svg" width="142" height="35" viewBox="10.486 19.806 221.941 60.679" role="img" aria-labelledby="snapitTitle">
  <title id="snapitTitle">Snap'it</title>
  <defs>
    <linearGradient id="g_primary" x1="0" x2="1" y1="0" y2="1">
      <stop offset="0" stop-color="#4fbf8b"/>
      <stop offset="1" stop-color="#44ae7c"/>
    </linearGradient>
    <filter id="shadow" x="-50%" y="-50%" width="200%" height="200%">
      <feDropShadow dx="0" dy="2" stdDeviation="4" flood-opacity="0.12"/>
    </filter>
  </defs>
  <g transform="matrix(1, 0, 0, 1, 13.165049, 22)" filter="url(#shadow)">
    <rect x="0" y="0" width="56" height="56" rx="10" ry="10" fill="url(#g_primary)"/>
    <path d="M14 22 h28 a2 2 0 0 1 2 2 v14 a6 6 0 0 1 -6 6 h-20 a6 6 0 0 1 -6 -6 v-14 a2 2 0 0 1 2 -2 z" fill="#ffffff" opacity="0.98"/>
    <path d="M20 18 c0 -4 4 -8 8 -8 s8 4 8 8" stroke="#ffffff" stroke-width="2.8" stroke-linecap="round" fill="none" opacity="0.98"/>
    <circle cx="34" cy="36" r="8" fill="#4fbf8b"/>
    <line x1="34" y1="36" x2="38" y2="32" stroke="#ffffff" stroke-width="1.8" stroke-linecap="round"/>
    <circle cx="34" cy="36" r="1.2" fill="#ffffff"/>
  </g>
  <g transform="matrix(1, 0, 0, 1, 82.970871, 66.077667)">
    <text x="0" y="0" font-family="Inter, system-ui, -apple-system, 'Helvetica Neue', Arial" font-weight="700" font-size="48" fill="#0f172a" style="white-space: pre;">snap'it</text>
  </g>
</svg>